Coordinates
version=1
nRows=14
nColumns=42
inDegrees=yes

Units are S.I. units (second, meters, Newtons, ...)
If the header above contains a line with 'inDegrees', this indicates whether rotational values are in degrees (yes) or radians (no).

endheader
time	pelvis_tilt	pelvis_list	pelvis_rotation	pelvis_tx	pelvis_ty	pelvis_tz	hip_flexion_r	hip_adduction_r	hip_rotation_r	knee_angle_r	knee_adduction_r	knee_angle_r_beta	ankle_angle_r	subtalar_angle_r	mtp_angle_r	hip_flexion_l	hip_adduction_l	hip_rotation_l	knee_angle_l	knee_adduction_l	knee_angle_l_beta	ankle_angle_l	subtalar_angle_l	mtp_angle_l	lumbar_extension	lumbar_bending	lumbar_rotation	arm_flex_r	arm_add_r	arm_rot_r	elbow_flex_r	pro_sup_r	wrist_flex_r	wrist_dev_r	arm_flex_l	arm_add_l	arm_rot_l	elbow_flex_l	pro_sup_l	wrist_flex_l	wrist_dev_l
      0.81000000	      9.06781003	     -1.86247780	     -0.06998968	     -0.21588668	      0.86485117	     -0.29606895	    -28.71553368	      6.23928707	     -8.23674848	      9.91154050	     -2.29779375	      0.17298902	     21.42448872	     17.16642210	     -7.58615028	     15.91310630	     -3.54751997	    -26.47792674	     11.19999330	      1.45979666	      0.19547676	     10.69434230	     21.03729904	     -7.58615028	    -21.46575546	     -1.58394698	      3.02182834	      0.51571646	     -2.21912289	    -15.20736079	     56.56413543	     90.00000001	      0.00000000	      0.00000000	     -3.72401619	     -4.46998877	    -24.62940445	     34.96544308	     90.00000001	      0.00000000	      0.00000000
      0.82000000	      8.72581588	     -1.79725689	     -0.13337821	     -0.20366143	      0.86297202	     -0.29624751	    -28.91847823	      6.04722667	     -8.52274977	     10.55074072	     -2.35794553	      0.18414516	     21.23433716	     17.21541586	     -7.58481924	     16.38419492	     -3.16975152	    -26.18990612	     11.59199530	      1.19668155	      0.20231848	     10.64644405	     20.89211464	     -7.58481924	    -20.95578084	     -1.67561646	      3.07072366	      0.45754262	     -2.21492426	    -15.18331543	     56.29074811	     90.00000001	      0.00000000	      0.00000000	     -3.96136730	     -4.57994981	    -24.66571486	     34.62983627	     90.00000001	      0.00000000	      0.00000000
      0.83000000	      8.51680130	     -1.27863720	     -0.29445896	     -0.19098419	      0.86121868	     -0.29675278	    -28.99533670	      5.11342396	    -10.21836975	     11.79628587	     -2.26837833	      0.20588403	     21.56916056	     19.06760958	     -7.57791273	     16.57756910	     -2.20907809	    -25.75399110	     12.06777040	      0.72655141	      0.21062233	     10.51969107	     20.45497360	     -7.57791273	    -20.54934205	     -2.25204003	      3.06587473	      0.32296915	     -2.15353692	    -15.27625270	     56.06746437	     90.00000001	      0.00000000	      0.00000000	     -4.15738853	     -4.57873663	    -25.38671963	     34.34979214	     90.00000001	      0.00000000	      0.00000000
      0.84000000	      8.17549148	     -1.04068272	     -0.38007660	     -0.17838634	      0.85943451	     -0.29705689	    -29.16274986	      4.70197392	    -10.55604561	     12.52753618	     -2.32658865	      0.21864675	     21.23978302	     19.03202375	     -7.57675614	     17.07006303	     -1.59691072	    -25.14194201	     13.11284844	      0.10079150	      0.22886238	     10.34972070	     19.92803137	     -7.57675614	    -20.02362870	     -2.53920330	      3.10526072	      0.16281896	     -2.13815138	    -15.28710906	     55.79378396	     90.00000001	      0.00000000	      0.00000000	     -4.39044885	     -4.69332390	    -25.41880167	     34.08158270	     90.00000001	      0.00000000	      0.00000000
      0.85000000	      7.84035255	     -0.61286807	     -0.46376268	     -0.16557826	      0.85775543	     -0.29749948	    -29.26079133	      4.03448902	    -11.19264320	     13.44618346	     -2.32228023	      0.23468017	     20.90854890	     19.06177502	     -7.57550174	     17.60135524	     -0.77266194	    -24.56514381	     14.48147422	     -0.68404919	      0.25274941	     10.12092537	     19.10651029	     -7.57550174	    -19.49878852	     -3.02167990	      3.09638826	     -0.01751198	     -2.07581246	    -15.38515998	     55.46511795	     90.00000001	      0.00000000	      0.00000000	     -4.61947568	     -4.81226753	    -25.57045754	     33.84496329	     90.00000001	      0.00000000	      0.00000000
      0.86000000	      7.72990131	      0.53799981	     -0.67125907	     -0.15237916	      0.85645478	     -0.29844364	    -29.20352134	      2.21507934	    -13.89306866	     15.24964763	     -2.24668893	      0.26615656	     21.14584469	     21.95201067	     -7.56898348	     17.56810200	      0.99570074	    -23.49446242	     15.32186545	     -1.44818543	      0.26741700	      9.40578716	     16.95674927	     -7.56898348	    -19.19122510	     -4.27852731	      2.99777841	     -0.24536603	     -1.94934801	    -15.61767759	     55.10330846	     90.00000001	      0.00000000	      0.00000000	     -4.78025147	     -4.83686374	    -26.38737555	     33.70131755	     90.00000001	      0.00000000	      0.00000000
      0.87000000	      7.46988956	      1.02507062	     -0.72326759	     -0.13947681	      0.85526937	     -0.29890421	    -29.30884035	      1.49831759	    -14.30534338	     16.26438702	     -2.27233881	      0.28386710	     20.37286692	     21.68974538	     -7.56784582	     18.11700348	      1.82488432	    -22.88329255	     17.18537917	     -2.36498119	      0.29994145	      9.15251335	     16.03009482	     -7.56784582	    -18.78764448	     -4.83136722	      2.95537724	     -0.45378377	     -1.87129210	    -15.70574723	     54.70565267	     90.00000001	      0.00000000	      0.00000000	     -4.97671610	     -4.98136808	    -26.40288013	     33.53067519	     90.00000001	      0.00000000	      0.00000000
      0.88000000	      7.35671030	      2.14437443	     -0.87499648	     -0.12641920	      0.85448759	     -0.29979706	    -29.23954836	     -0.18020045	    -16.12190306	     18.02397275	     -2.30327179	      0.31457767	     19.96391600	     23.09653094	     -7.56247585	     18.21726359	      3.45074164	    -21.45948204	     18.55389430	     -2.98127232	      0.32382654	      8.50558062	     12.94625430	     -7.56247585	    -18.55376491	     -6.06738796	      2.85674502	     -0.66852509	     -1.72476075	    -16.01736666	     54.22353247	     90.00000001	      0.00000000	      0.00000000	     -5.12567600	     -5.08178376	    -26.73447775	     33.52631129	     90.00000001	      0.00000000	      0.00000000
      0.89000000	      7.25295219	      2.97352435	     -0.94961700	     -0.11346433	      0.85403337	     -0.30048335	    -29.21857317	     -1.38114269	    -16.93625370	     19.57761463	     -2.38620428	      0.34169383	     18.95761611	     23.21186328	     -7.55800603	     18.42394367	      4.62182734	    -20.05078730	     20.33481844	     -3.42060871	      0.35490953	      8.21930204	     10.24713129	     -7.55800603	    -18.36884732	     -6.99330514	      2.75519096	     -0.87788043	     -1.60350403	    -16.22475512	     53.70607825	     90.00000001	      0.00000000	      0.00000000	     -5.26215678	     -5.20529129	    -26.87271798	     33.50041814	     90.00000001	      0.00000000	      0.00000000
      0.90000000	      7.22978056	      3.83339430	     -1.02327210	     -0.10053477	      0.85400998	     -0.30116823	    -29.17276758	     -2.62013321	    -17.55425284	     21.28402967	     -2.48861908	      0.37147640	     17.65398389	     23.02325063	     -7.55346931	     18.40053625	      5.78771959	    -18.19528329	     21.95489987	     -3.48397248	      0.38318529	      7.98203094	      6.86831154	     -7.55346931	    -18.30110514	     -7.95717634	      2.65415146	     -1.08014040	     -1.48589449	    -16.44180435	     53.11497844	     90.00000001	      0.00000000	      0.00000000	     -5.34052809	     -5.31159193	    -27.00851653	     33.47727010	     90.00000001	      0.00000000	      0.00000000
      0.91000000	      7.31409603	      4.41531734	     -1.18050439	     -0.08744907	      0.85424768	     -0.30146597	    -29.10736187	     -3.54784559	    -17.66330408	     23.12171509	     -2.68062997	      0.40355006	     16.02466438	     22.35909573	     -7.55256821	     18.36944559	      6.43850930	    -17.27844561	     23.93170276	     -3.58162826	      0.41768701	      8.60782797	      5.41024853	     -7.55256821	    -18.32273785	     -8.65775255	      2.69699240	     -1.30348559	     -1.40004316	    -16.59610399	     52.55094471	     90.00000001	      0.00000000	      0.00000000	     -5.43242031	     -5.40721212	    -27.07227471	     33.54114383	     90.00000001	      0.00000000	      0.00000000
      0.92000000	      7.50831748	      4.96577973	     -1.36604463	     -0.07450795	      0.85486811	     -0.30184512	    -28.97687871	     -4.52266200	    -17.47563153	     25.20024767	     -2.78963646	      0.43982729	     14.14242369	     21.64823897	     -7.55191036	     17.99830475	      7.00630818	    -16.15655465	     25.55699274	     -3.28817215	      0.44605367	      9.32880779	      3.79386030	     -7.55191036	    -18.49699920	     -9.31498255	      2.74633836	     -1.48224969	     -1.37659898	    -16.76303546	     51.95464700	     90.00000001	      0.00000000	      0.00000000	     -5.48583048	     -5.47652102	    -27.10828056	     33.66529113	     90.00000001	      0.00000000	      0.00000000
      0.93000000	      7.70656285	      6.05296836	     -1.38113491	     -0.06202788	      0.85604907	     -0.30281919	    -28.67227013	     -5.97242191	    -17.16447846	     27.63602213	     -2.80514242	      0.48233958	     12.43433042	     19.85312180	     -7.54828608	     16.95125488	      8.49353094	    -12.67085939	     25.79355353	     -2.07945263	      0.45018243	      8.40728987	     -2.64649271	     -7.54828608	    -18.78895277	    -10.46734611	      2.44414666	     -1.60324002	     -1.23389825	    -17.08431997	     51.26426928	     90.00000001	      0.00000000	      0.00000000	     -5.49273978	     -5.59513629	    -27.01209128	     33.87744595	     90.00000001	      0.00000000	      0.00000000
      0.94000000	      8.05544663	      6.42979554	     -1.62615659	     -0.04943032	      0.85725324	     -0.30299785	    -28.25130452	     -6.74262944	    -16.49228435	     30.24794731	     -3.12519362	      0.52792627	     10.34377355	     19.15079324	     -7.54767795	     16.06118801	      8.84310778	    -12.07094114	     26.69017993	     -1.70769490	      0.46583152	      9.47831044	     -3.34222765	     -7.54767795	    -19.16927672	    -10.93950250	      2.53092324	     -1.75890546	     -1.24929145	    -17.17301612	     50.65769869	     90.00000001	      0.00000000	      0.00000000	     -5.49222039	     -5.60413992	    -26.99406261	     34.11068216	     90.00000001	      0.00000000	      0.00000000
